<?xml version="1.0" encoding="UTF-8" standalone="no"?>
<svg
   width="440"
   height="440"
   viewBox="0 0 440 440"
   fill="none"
   version="1.1"
   id="svg2"
   sodipodi:docname="studios_purple_v3.svg"
   xml:space="preserve"
   inkscape:version="1.3.2 (091e20e, 2023-11-25, custom)"
   inkscape:export-filename="studios_purple_v3.png"
   inkscape:export-xdpi="223.41818"
   inkscape:export-ydpi="223.41818"
   xmlns:inkscape="http://www.inkscape.org/namespaces/inkscape"
   xmlns:sodipodi="http://sodipodi.sourceforge.net/DTD/sodipodi-0.dtd"
   xmlns="http://www.w3.org/2000/svg"
   xmlns:svg="http://www.w3.org/2000/svg"><defs
     id="defs2"><inkscape:path-effect
       effect="fillet_chamfer"
       id="path-effect3"
       is_visible="true"
       lpeversion="1"
       nodesatellites_param="F,0,0,1,0,14.876881,0,1 @ F,0,0,1,0,10.74163,0,1 @ F,0,0,1,0,15.951201,0,1 @ F,0,0,1,0,11.945354,0,1 @ F,0,0,1,0,12.877311,0,1 @ F,0,0,1,0,11.943151,0,1"
       radius="0"
       unit="px"
       method="auto"
       mode="F"
       chamfer_steps="1"
       flexible="false"
       use_knot_distance="true"
       apply_no_radius="true"
       apply_with_radius="true"
       only_selected="false"
       hide_knots="false" /><inkscape:path-effect
       effect="fillet_chamfer"
       id="path-effect3-9"
       is_visible="true"
       lpeversion="1"
       nodesatellites_param="F,0,0,1,0,14.876881,0,1 @ F,0,0,1,0,10.74163,0,1 @ F,0,0,1,0,15.951201,0,1 @ F,0,0,1,0,11.945354,0,1 @ F,0,0,1,0,12.877311,0,1 @ F,0,0,1,0,11.943151,0,1"
       radius="0"
       unit="px"
       method="auto"
       mode="F"
       chamfer_steps="1"
       flexible="false"
       use_knot_distance="true"
       apply_no_radius="true"
       apply_with_radius="true"
       only_selected="false"
       hide_knots="false" /></defs><sodipodi:namedview
     id="namedview2"
     pagecolor="#ffffff"
     bordercolor="#666666"
     borderopacity="1.0"
     inkscape:showpageshadow="2"
     inkscape:pageopacity="0.0"
     inkscape:pagecheckerboard="0"
     inkscape:deskcolor="#d1d1d1"
     inkscape:zoom="1"
     inkscape:cx="31"
     inkscape:cy="235.5"
     inkscape:window-width="2560"
     inkscape:window-height="1369"
     inkscape:window-x="-8"
     inkscape:window-y="-8"
     inkscape:window-maximized="1"
     inkscape:current-layer="svg2" /><g
     id="g4"
     inkscape:label="logo"
     transform="translate(0.50000011,-40.115371)"><g
       id="g3"
       inkscape:label="emblem"><path
         style="display:inline;fill:#6e0f83;fill-opacity:1;stroke-width:0.464734"
         d="m 214.87109,380.86536 c -1.34945,-0.48176 -3.3362,-1.58066 -4.41499,-2.44197 C 205.43331,374.41311 110.41621,291.43118 106.79924,287.89602 99.459185,280.722 94.383555,271.83055 91.909865,261.81295 89.186819,250.78566 66.053104,138.95914 66.053104,136.82355 c 0,-5.65456 3.572036,-10.75137 9.600653,-13.69887 16.492328,-8.0634 130.719563,-61.957457 133.073263,-62.785881 6.65323,-2.341704 13.97208,-2.571179 20.93259,-0.656319 4.34999,1.196686 133.60122,62.57977 136.61288,64.8792 2.46846,1.8847 5.33162,5.94048 6.12015,8.66936 0.30852,1.06777 0.55792,3.30073 0.55422,4.96215 -0.006,3.24916 -23.07436,122.9547 -24.85127,128.96422 -2.16155,7.31046 -7.37667,15.4072 -13.02116,20.21601 -1.35013,1.15021 -25.88656,22.24847 -54.52545,46.88499 -38.11976,32.79243 -52.74378,45.10613 -54.583,45.95988 -3.38891,1.57317 -7.78302,1.82945 -11.09489,0.64707 z m 10.35407,-40.27803 c 1.60689,-0.7318 14.43731,-11.47165 41.59386,-34.81658 21.59858,-18.56709 40.55391,-35.08944 42.12292,-36.71627 3.37101,-3.49529 5.73577,-7.35835 7.34706,-12.0021 1.15355,-3.32462 19.31091,-95.78814 19.31091,-98.33791 0,-3.77839 -2.64437,-8.84717 -5.81958,-11.15498 -1.89886,-1.38014 -96.0125,-46.36095 -100.60492,-48.083254 -3.53515,-1.32581 -13.87087,-1.43356 -17.58027,-0.18332 -4.05933,1.368244 -101.48452,47.684934 -103.25105,49.086394 -0.89464,0.70972 -2.22488,2.25225 -2.95613,3.4278 -2.6674,4.28817 -2.8906,2.7651 8.0509,54.93462 7.03839,33.55949 10.2403,47.93182 11.23351,50.42387 1.74495,4.37815 4.89389,9.47045 7.86979,12.72653 3.17633,3.47542 79.12099,69.56564 81.13625,70.60814 3.61309,1.86911 7.56825,1.89893 11.54675,0.0871 z"
         id="path5-5"
         inkscape:label="out" /><path
         d="m 215.51758,82.236328 a 31.321624,31.321624 0 0 0 -8.82813,2.679688 L 96.074219,137.33789 a 13.630157,13.630157 0 0 0 -7.503907,15.11328 L 109.9043,254.22852 a 47.544592,47.544592 0 0 0 15.29883,26.08984 l 85.36523,74.38867 a 13.80105,13.80105 0 0 0 18.06445,0.0606 l 89.5,-76.94531 a 37.059566,37.059566 0 0 0 12.22071,-21.03516 l 20.08203,-103.4043 a 15.415039,15.415039 0 0 0 -8.50586,-16.85742 L 233.56641,84.939453 a 31.321624,31.321624 0 0 0 -18.04883,-2.703125 z m 1.01367,35.029302 a 23.357242,23.357242 0 0 1 13.45898,2.01757 l 80.8086,38.4668 a 11.495343,11.495343 0 0 1 6.34375,12.57227 l -14.97656,77.10937 a 27.636155,27.636155 0 0 1 -9.11329,15.6875 l -66.74218,57.37891 a 10.291755,10.291755 0 0 1 -13.47071,-0.0449 L 149.17969,264.9805 a 35.455075,35.455075 0 0 1 -11.40821,-19.45703 l -15.9082,-75.89649 a 10.164316,10.164316 0 0 1 5.5957,-11.26953 l 82.48829,-39.09179 a 23.357242,23.357242 0 0 1 6.58398,-2 z"
         style="display:none;stroke:#000000;stroke-width:1px"
         id="path4"
         inkscape:label="inner_skeleton" /><path
         style="display:inline;fill:#aae27a;fill-opacity:1;stroke:none;stroke-width:0.387532;stroke-opacity:1"
         d="m 215.64006,354.14063 c -1.12529,-0.40173 -2.78199,-1.31808 -3.68157,-2.03632 -4.18837,-3.34405 -83.42089,-72.54073 -86.43699,-75.4886 -6.1207,-5.98226 -10.35314,-13.39663 -12.41591,-21.75007 -2.27066,-9.1954 -21.561317,-102.44487 -21.561317,-104.2257 0,-4.71518 2.97863,-8.9653 8.00576,-11.42315 13.752557,-6.72389 109.003917,-51.664849 110.966627,-52.355651 5.54796,-1.952692 11.65098,-2.144045 17.45518,-0.547288 3.62734,0.997888 111.4069,52.183759 113.91824,54.101209 2.05839,1.57162 4.44592,4.95362 5.10345,7.22919 0.25727,0.89037 0.46523,2.75239 0.46216,4.13781 -0.006,2.7094 -19.24119,102.52901 -20.72289,107.54019 -1.80247,6.09603 -6.15123,12.84771 -10.85805,16.85765 -1.12581,0.95915 -21.58617,18.55248 -45.46746,39.09629 -31.78716,27.34483 -43.9818,37.61294 -45.51547,38.32487 -2.82595,1.31182 -6.49008,1.52552 -9.25176,0.53957 z m 8.634,-33.5869 c 1.33994,-0.61023 12.03894,-9.56593 34.68413,-29.03272 18.01056,-15.48268 33.81694,-29.26024 35.12532,-30.61684 2.81099,-2.91462 4.7829,-6.13594 6.12652,-10.00825 0.96193,-2.77231 16.10292,-79.87544 16.10292,-82.00165 0,-3.15073 -2.20509,-7.37744 -4.85282,-9.30188 -1.5834,-1.15087 -80.06253,-38.65928 -83.89205,-40.09548 -2.94789,-1.10556 -11.56659,-1.19541 -14.65979,-0.15284 -3.38497,1.14092 -84.62551,39.7633 -86.0986,40.93194 -0.746,0.59184 -1.85526,1.8781 -2.46503,2.85838 -2.22429,3.57578 -2.41042,2.30576 6.71344,45.80868 5.86917,27.98445 8.53915,39.96919 9.36738,42.04725 1.45507,3.65085 4.08088,7.89719 6.56241,10.61237 2.64868,2.89808 65.97714,58.00913 67.6576,58.87845 3.01289,1.5586 6.31098,1.58347 9.62857,0.0727 z"
         id="path5"
         inkscape:label="inner" /></g><g
       id="text6"
       inkscape:label="k"><path
         id="path10"
         style="display:inline;fill:none;stroke:#000000;stroke-width:1px;stroke-linecap:butt;stroke-linejoin:miter;stroke-opacity:1"
         d="m 216.80859,227.1875 16.43164,-16.43164 m -14.93843,74.09673 c 21.11827,0 38.3424,-17.22413 38.3424,-38.49218 0,-15.72637 -9.5856,-29.65545 -23.51468,-35.49667 l 16.47525,-16.47525 -13.62952,-13.47975 -34.44825,34.29847 v -60.05977 h -19.1712 v 102.4461 h 19.1712 v -15.12728 l 15.27705,-15.27705 h 1.49775 c 10.63402,0 19.1712,8.53718 19.1712,19.1712 0,10.7838 -8.53718,19.32098 -19.1712,19.32098 z"
         inkscape:label="skeleton" /><path
         style="display:inline;fill:#f80088;fill-opacity:1;stroke:#43dcf2;stroke-width:20;stroke-linecap:round;stroke-linejoin:round;stroke-dasharray:none;stroke-opacity:1;paint-order:stroke fill markers"
         d="m 218.87642,275.25699 v -8.97058 l 0.71712,-0.0774 c 1.63651,-0.17656 3.15231,-0.44774 4.19712,-0.75087 6.97877,-2.02475 12.23341,-7.67166 13.77962,-14.80831 0.53452,-2.46711 0.5604,-5.81534 0.0639,-8.2645 -1.20572,-5.94746 -5.16756,-11.07791 -10.58886,-13.7122 -2.33806,-1.13611 -4.43284,-1.71038 -7.20359,-1.97483 l -1.59138,-0.15189 7.51538,-7.51318 7.51539,-7.51318 1.49659,0.72589 c 3.89791,1.89062 7.19689,4.29266 10.41852,7.58589 1.93387,1.97686 2.97842,3.24625 4.3456,5.28098 3.62275,5.39165 5.77887,11.42927 6.38335,17.87485 0.21116,2.2515 0.0869,6.76265 -0.24622,8.93892 -2.1887,14.29885 -12.18411,26.11415 -25.82753,30.53 -3.26984,1.05832 -7.27181,1.77094 -9.94533,1.77094 h -1.02967 z"
         id="path17"
         inkscape:label="down" /><path
         style="display:inline;fill:#43dcf2;fill-opacity:1;stroke:#f80088;stroke-width:20;stroke-linecap:round;stroke-linejoin:round;stroke-dasharray:none;stroke-opacity:1;paint-order:stroke fill markers"
         d="m 182.95824,206.34247 v -50.69702 h 8.97954 8.97955 v 30.36833 c 0,20.52979 0.0412,30.36832 0.12702,30.36832 0.0699,0 7.9579,-7.80387 17.52898,-17.34195 l 17.40196,-17.34195 6.40772,6.33577 6.40772,6.33577 -23.9367,23.94558 -23.9367,23.94558 v 7.38929 7.3893 h -8.97955 -8.97954 z"
         id="path16"
         inkscape:label="up" /></g><text
       xml:space="preserve"
       style="font-style:normal;font-variant:normal;font-weight:normal;font-stretch:normal;font-size:69.4462px;line-height:1.1;font-family:'Good Times';-inkscape-font-specification:'Good Times';fill:#6e0f83;stroke-width:0.868077;fill-opacity:1"
       x="28.904951"
       y="461.13913"
       id="text1"
       inkscape:label="studios"><tspan
         sodipodi:role="line"
         id="tspan1"
         x="28.904951"
         y="461.13913"
         style="stroke-width:0.868077;fill:#6e0f83;fill-opacity:1">STUDIOS</tspan></text></g></svg>
