<svg width="926" height="456" viewBox="0 0 926 456" fill="none" xmlns="http://www.w3.org/2000/svg">
<g clip-path="url(#clip0_5_10)">
<rect width="926" height="456" rx="115" fill="#D82323"/>
<path d="M50.0351 359L142.291 119.432H235.663L327.919 359H234.175L217.063 314.36H160.891L143.779 359H50.0351ZM170.563 252.98H207.019L188.791 207.224L170.563 252.98ZM346.647 359V119.432H460.479C485.775 119.432 507.723 123.524 526.323 131.708C544.923 139.644 559.307 152.54 569.475 170.396C579.643 188.004 584.727 211.44 584.727 240.704C584.727 268.48 579.643 291.048 569.475 308.408C559.555 325.768 545.295 338.54 526.695 346.724C508.343 354.908 486.271 359 460.479 359H346.647ZM436.671 290.552H450.063C458.991 290.552 466.679 289.312 473.127 286.832C479.575 284.352 484.535 279.516 488.007 272.324C491.479 265.132 493.215 254.592 493.215 240.704C493.215 226.816 491.603 216.524 488.379 209.828C485.155 202.884 480.319 198.42 473.871 196.436C467.671 194.204 459.735 193.088 450.063 193.088H436.671V290.552ZM601.307 359V119.432H686.867L735.599 218.384L783.959 119.432H869.519V359H779.495V274.928L758.291 318.08H712.535L691.331 274.928V359H601.307Z" fill="white"/>
</g>
<defs>
<clipPath id="clip0_5_10">
<rect width="926" height="456" fill="white"/>
</clipPath>
</defs>
</svg>
