<svg width="926" height="456" viewBox="0 0 926 456" fill="none" xmlns="http://www.w3.org/2000/svg">
<g clip-path="url(#clip0_5_10)">
<rect width="926" height="456" rx="115" fill="#B689F5"/>
<path d="M111.476 361V118.212H255.49C280.372 118.212 299.599 124.118 313.171 135.931C326.995 147.744 333.906 164.709 333.906 186.826C333.906 198.89 331.77 209.195 327.497 217.74C323.476 226.285 318.072 233.071 311.286 238.098C320.837 242.622 328.377 248.528 333.906 255.817C339.436 262.854 342.2 273.41 342.2 287.485C342.2 310.356 334.66 328.327 319.58 341.396C304.752 354.465 283.891 361 256.998 361H111.476ZM197.055 211.331H230.985C243.049 211.331 249.081 205.927 249.081 195.12C249.081 185.067 243.049 180.04 230.985 180.04H197.055V211.331ZM197.055 299.172H230.985C243.049 299.172 249.081 293.768 249.081 282.961C249.081 272.908 243.049 267.881 230.985 267.881H197.055V299.172ZM481.776 364.77C454.38 364.77 431.006 360.749 411.654 352.706C392.301 344.412 377.472 331.091 367.168 312.744C356.863 294.397 351.711 270.017 351.711 239.606C351.711 208.943 356.863 184.564 367.168 166.468C377.472 148.121 392.301 134.926 411.654 126.883C431.006 118.589 454.38 114.442 481.776 114.442C509.171 114.442 532.545 118.589 551.898 126.883C571.25 134.926 586.079 148.121 596.384 166.468C606.688 184.564 611.841 208.943 611.841 239.606C611.841 270.017 606.688 294.397 596.384 312.744C586.079 331.091 571.25 344.412 551.898 352.706C532.545 360.749 509.171 364.77 481.776 364.77ZM481.776 287.485C495.096 287.485 504.521 283.966 510.051 276.929C515.831 269.64 518.722 257.199 518.722 239.606C518.722 222.013 515.831 209.697 510.051 202.66C504.521 195.371 495.096 191.727 481.776 191.727C468.455 191.727 458.904 195.371 453.124 202.66C447.594 209.697 444.83 222.013 444.83 239.606C444.83 257.199 447.594 269.64 453.124 276.929C458.904 283.966 468.455 287.485 481.776 287.485ZM675.539 361V183.81H613.711V118.212H828.601V183.81H766.773V361H675.539Z" fill="white"/>
</g>
<defs>
<clipPath id="clip0_5_10">
<rect width="926" height="456" fill="white"/>
</clipPath>
</defs>
</svg>
