<svg width="926" height="456" viewBox="0 0 926 456" fill="none" xmlns="http://www.w3.org/2000/svg">
<g clip-path="url(#clip0_5_10)">
<rect width="926" height="456" rx="115" fill="#FF5959"/>
<path d="M204.2 381.23C150.62 381.23 110.012 369.386 82.376 345.698C55.022 322.01 41.345 287.042 41.345 240.794C41.345 194.546 54.881 159.578 81.953 135.89C109.307 112.202 149.774 100.358 203.354 100.358C220.838 100.358 236.207 101.627 249.461 104.165C262.997 106.703 276.251 110.369 289.223 115.163V204.416C263.561 192.572 237.194 186.65 210.122 186.65C190.382 186.65 174.731 190.598 163.169 198.494C151.607 206.108 145.826 220.208 145.826 240.794C145.826 261.38 151.748 275.621 163.592 283.517C175.436 291.131 191.228 294.938 210.968 294.938C238.04 294.938 264.407 289.016 290.069 277.172V366.425C277.097 370.937 263.843 374.462 250.307 377C237.053 379.82 221.684 381.23 204.2 381.23ZM311.288 377V104.588H440.726C469.49 104.588 494.447 109.241 515.597 118.547C536.747 127.571 553.103 142.235 564.665 162.539C576.227 182.561 582.008 209.21 582.008 242.486C582.008 274.07 576.227 299.732 564.665 319.472C553.385 339.212 537.17 353.735 516.02 363.041C495.152 372.347 470.054 377 440.726 377H311.288ZM413.654 299.168H428.882C439.034 299.168 447.776 297.758 455.108 294.938C462.44 292.118 468.08 286.619 472.028 278.441C475.976 270.263 477.95 258.278 477.95 242.486C477.95 226.694 476.117 214.991 472.451 207.377C468.785 199.481 463.286 194.405 455.954 192.149C448.904 189.611 439.88 188.342 428.882 188.342H413.654V299.168ZM738.337 381.23C707.599 381.23 681.373 376.718 659.659 367.694C637.945 358.388 621.307 343.442 609.745 322.856C598.183 302.27 592.402 274.916 592.402 240.794C592.402 206.39 598.183 179.036 609.745 158.732C621.307 138.146 637.945 123.341 659.659 114.317C681.373 105.011 707.599 100.358 738.337 100.358C769.075 100.358 795.301 105.011 817.015 114.317C838.729 123.341 855.367 138.146 866.929 158.732C878.491 179.036 884.272 206.39 884.272 240.794C884.272 274.916 878.491 302.27 866.929 322.856C855.367 343.442 838.729 358.388 817.015 367.694C795.301 376.718 769.075 381.23 738.337 381.23ZM738.337 294.515C753.283 294.515 763.858 290.567 770.062 282.671C776.548 274.493 779.791 260.534 779.791 240.794C779.791 221.054 776.548 207.236 770.062 199.34C763.858 191.162 753.283 187.073 738.337 187.073C723.391 187.073 712.675 191.162 706.189 199.34C699.985 207.236 696.883 221.054 696.883 240.794C696.883 260.534 699.985 274.493 706.189 282.671C712.675 290.567 723.391 294.515 738.337 294.515Z" fill="white"/>
</g>
<defs>
<clipPath id="clip0_5_10">
<rect width="926" height="456" fill="white"/>
</clipPath>
</defs>
</svg>
