<svg width="926" height="456" viewBox="0 0 926 456" fill="none" xmlns="http://www.w3.org/2000/svg">
<g clip-path="url(#clip0_5_10)">
<rect width="926" height="456" rx="115" fill="#580000"/>
<path d="M232.42 381.23C178.84 381.23 138.232 369.386 110.596 345.698C83.2417 322.01 69.5647 287.042 69.5647 240.794C69.5647 194.546 83.1007 159.578 110.173 135.89C137.527 112.202 177.994 100.358 231.574 100.358C249.058 100.358 264.427 101.627 277.681 104.165C291.217 106.703 304.471 110.369 317.443 115.163V204.416C291.781 192.572 265.414 186.65 238.342 186.65C218.602 186.65 202.951 190.598 191.389 198.494C179.827 206.108 174.046 220.208 174.046 240.794C174.046 261.38 179.968 275.621 191.812 283.517C203.656 291.131 219.448 294.938 239.188 294.938C266.26 294.938 292.627 289.016 318.289 277.172V366.425C305.317 370.937 292.063 374.462 278.527 377C265.273 379.82 249.904 381.23 232.42 381.23ZM339.508 377V104.588H557.353V178.19H441.874V202.724H541.279V278.864H441.874V303.398H557.353V377H339.508ZM711.616 381.23C680.878 381.23 654.652 376.718 632.938 367.694C611.224 358.388 594.586 343.442 583.024 322.856C571.462 302.27 565.681 274.916 565.681 240.794C565.681 206.39 571.462 179.036 583.024 158.732C594.586 138.146 611.224 123.341 632.938 114.317C654.652 105.011 680.878 100.358 711.616 100.358C742.354 100.358 768.58 105.011 790.294 114.317C812.008 123.341 828.646 138.146 840.208 158.732C851.77 179.036 857.551 206.39 857.551 240.794C857.551 274.916 851.77 302.27 840.208 322.856C828.646 343.442 812.008 358.388 790.294 367.694C768.58 376.718 742.354 381.23 711.616 381.23ZM711.616 294.515C726.562 294.515 737.137 290.567 743.341 282.671C749.827 274.493 753.07 260.534 753.07 240.794C753.07 221.054 749.827 207.236 743.341 199.34C737.137 191.162 726.562 187.073 711.616 187.073C696.67 187.073 685.954 191.162 679.468 199.34C673.264 207.236 670.162 221.054 670.162 240.794C670.162 260.534 673.264 274.493 679.468 282.671C685.954 290.567 696.67 294.515 711.616 294.515Z" fill="white"/>
</g>
<defs>
<clipPath id="clip0_5_10">
<rect width="926" height="456" fill="white"/>
</clipPath>
</defs>
</svg>
