<svg width="926" height="456" viewBox="0 0 926 456" fill="none" xmlns="http://www.w3.org/2000/svg">
<g clip-path="url(#clip0_5_10)">
<rect width="926" height="456" rx="115" fill="#D82323"/>
<path d="M197.514 381.23C143.934 381.23 103.326 369.386 75.69 345.698C48.336 322.01 34.659 287.042 34.659 240.794C34.659 194.546 48.195 159.578 75.267 135.89C102.621 112.202 143.088 100.358 196.668 100.358C214.152 100.358 229.521 101.627 242.775 104.165C256.311 106.703 269.565 110.369 282.537 115.163V204.416C256.875 192.572 230.508 186.65 203.436 186.65C183.696 186.65 168.045 190.598 156.483 198.494C144.921 206.108 139.14 220.208 139.14 240.794C139.14 261.38 145.062 275.621 156.906 283.517C168.75 291.131 184.542 294.938 204.282 294.938C231.354 294.938 257.721 289.016 283.383 277.172V366.425C270.411 370.937 257.157 374.462 243.621 377C230.367 379.82 214.998 381.23 197.514 381.23ZM442.077 381.23C411.339 381.23 385.113 376.718 363.399 367.694C341.685 358.388 325.047 343.442 313.485 322.856C301.923 302.27 296.142 274.916 296.142 240.794C296.142 206.39 301.923 179.036 313.485 158.732C325.047 138.146 341.685 123.341 363.399 114.317C385.113 105.011 411.339 100.358 442.077 100.358C472.815 100.358 499.041 105.011 520.755 114.317C542.469 123.341 559.107 138.146 570.669 158.732C582.231 179.036 588.012 206.39 588.012 240.794C588.012 274.916 582.231 302.27 570.669 322.856C559.107 343.442 542.469 358.388 520.755 367.694C499.041 376.718 472.815 381.23 442.077 381.23ZM442.077 294.515C457.023 294.515 467.598 290.567 473.802 282.671C480.288 274.493 483.531 260.534 483.531 240.794C483.531 221.054 480.288 207.236 473.802 199.34C467.598 191.162 457.023 187.073 442.077 187.073C427.131 187.073 416.415 191.162 409.929 199.34C403.725 207.236 400.623 221.054 400.623 240.794C400.623 260.534 403.725 274.493 409.929 282.671C416.415 290.567 427.131 294.515 442.077 294.515ZM746.522 381.23C715.784 381.23 689.558 376.718 667.844 367.694C646.13 358.388 629.492 343.442 617.93 322.856C606.368 302.27 600.587 274.916 600.587 240.794C600.587 206.39 606.368 179.036 617.93 158.732C629.492 138.146 646.13 123.341 667.844 114.317C689.558 105.011 715.784 100.358 746.522 100.358C777.26 100.358 803.486 105.011 825.2 114.317C846.914 123.341 863.552 138.146 875.114 158.732C886.676 179.036 892.457 206.39 892.457 240.794C892.457 274.916 886.676 302.27 875.114 322.856C863.552 343.442 846.914 358.388 825.2 367.694C803.486 376.718 777.26 381.23 746.522 381.23ZM746.522 294.515C761.468 294.515 772.043 290.567 778.247 282.671C784.733 274.493 787.976 260.534 787.976 240.794C787.976 221.054 784.733 207.236 778.247 199.34C772.043 191.162 761.468 187.073 746.522 187.073C731.576 187.073 720.86 191.162 714.374 199.34C708.17 207.236 705.068 221.054 705.068 240.794C705.068 260.534 708.17 274.493 714.374 282.671C720.86 290.567 731.576 294.515 746.522 294.515Z" fill="white"/>
</g>
<defs>
<clipPath id="clip0_5_10">
<rect width="926" height="456" fill="white"/>
</clipPath>
</defs>
</svg>
