<svg width="926" height="456" viewBox="0 0 926 456" fill="none" xmlns="http://www.w3.org/2000/svg">
<g clip-path="url(#clip0_5_10)">
<rect width="926" height="456" rx="115" fill="#4D4D96"/>
<path d="M62.3786 361V118.212H149.089L198.476 218.494L247.486 118.212H334.196V361H242.962V275.798L221.473 319.53H175.102L153.613 275.798V361H62.3786ZM483.116 364.77C455.721 364.77 432.347 360.749 412.994 352.706C393.642 344.412 378.813 331.091 368.508 312.744C358.204 294.397 353.051 270.017 353.051 239.606C353.051 208.943 358.204 184.564 368.508 166.468C378.813 148.121 393.642 134.926 412.994 126.883C432.347 118.589 455.721 114.442 483.116 114.442C510.512 114.442 533.886 118.589 553.238 126.883C572.591 134.926 587.42 148.121 597.724 166.468C608.029 184.564 613.182 208.943 613.182 239.606C613.182 270.017 608.029 294.397 597.724 312.744C587.42 331.091 572.591 344.412 553.238 352.706C533.886 360.749 510.512 364.77 483.116 364.77ZM483.116 287.485C496.437 287.485 505.862 283.966 511.391 276.929C517.172 269.64 520.062 257.199 520.062 239.606C520.062 222.013 517.172 209.697 511.391 202.66C505.862 195.371 496.437 191.727 483.116 191.727C469.796 191.727 460.245 195.371 454.464 202.66C448.935 209.697 446.17 222.013 446.17 239.606C446.17 257.199 448.935 269.64 454.464 276.929C460.245 283.966 469.796 287.485 483.116 287.485ZM631.928 361V118.212H747.29C772.926 118.212 795.169 122.359 814.019 130.653C832.869 138.696 847.447 151.765 857.751 169.861C868.056 187.706 873.208 211.457 873.208 241.114C873.208 269.263 868.056 292.135 857.751 309.728C847.698 327.321 833.246 340.265 814.396 348.559C795.798 356.853 773.429 361 747.29 361H631.928ZM723.162 291.632H736.734C745.782 291.632 753.574 290.375 760.108 287.862C766.643 285.349 771.67 280.448 775.188 273.159C778.707 265.87 780.466 255.189 780.466 241.114C780.466 227.039 778.833 216.609 775.565 209.823C772.298 202.786 767.397 198.262 760.862 196.251C754.579 193.989 746.536 192.858 736.734 192.858H723.162V291.632Z" fill="white"/>
</g>
<defs>
<clipPath id="clip0_5_10">
<rect width="926" height="456" fill="white"/>
</clipPath>
</defs>
</svg>
