<svg width="926" height="456" viewBox="0 0 926 456" fill="none" xmlns="http://www.w3.org/2000/svg">
<g clip-path="url(#clip0_5_10)">
<rect width="926" height="456" rx="115" fill="#580000"/>
<path d="M168.022 362.72C140.99 362.72 117.926 358.752 98.8296 350.816C79.7336 342.632 65.1016 329.488 54.9336 311.384C44.7656 293.28 39.6816 269.224 39.6816 239.216C39.6816 208.96 44.7656 184.904 54.9336 167.048C65.1016 148.944 79.7336 135.924 98.8296 127.988C117.926 119.804 140.99 115.712 168.022 115.712C195.054 115.712 218.118 119.804 237.214 127.988C256.31 135.924 270.942 148.944 281.11 167.048C291.278 184.904 296.362 208.96 296.362 239.216C296.362 269.224 291.278 293.28 281.11 311.384C270.942 329.488 256.31 342.632 237.214 350.816C218.118 358.752 195.054 362.72 168.022 362.72ZM168.022 286.46C181.166 286.46 190.466 282.988 195.922 276.044C201.626 268.852 204.478 256.576 204.478 239.216C204.478 221.856 201.626 209.704 195.922 202.76C190.466 195.568 181.166 191.972 168.022 191.972C154.878 191.972 145.454 195.568 139.75 202.76C134.294 209.704 131.566 221.856 131.566 239.216C131.566 256.576 134.294 268.852 139.75 276.044C145.454 282.988 154.878 286.46 168.022 286.46ZM355.954 359L300.154 119.432H387.946L406.174 210.944L419.938 159.98V119.432H493.222L520.006 211.316L540.466 119.432H627.886L572.458 359H493.966L465.322 264.512L434.446 359H355.954ZM647.262 359V119.432H722.778L789.738 213.176V119.432H879.762V359H803.874L737.286 265.256V359H647.262Z" fill="white"/>
</g>
<defs>
<clipPath id="clip0_5_10">
<rect width="926" height="456" fill="white"/>
</clipPath>
</defs>
</svg>
