<svg width="926" height="456" viewBox="0 0 926 456" fill="none" xmlns="http://www.w3.org/2000/svg">
<g clip-path="url(#clip0_5_10)">
<rect width="926" height="456" rx="115" fill="#E91E63"/>
<path d="M166.364 381.23C147.188 381.23 128.717 379.679 110.951 376.577C93.185 373.193 78.239 368.399 66.113 362.195V285.632C79.367 292.118 94.313 297.476 110.951 301.706C127.589 305.936 142.394 308.051 155.366 308.051C163.826 308.051 170.453 307.064 175.247 305.09C180.041 302.834 182.438 299.732 182.438 295.784C182.438 290.708 177.926 286.76 168.902 283.94C159.878 281.12 148.034 277.031 133.37 271.673C115.886 264.905 102.068 257.855 91.916 250.523C81.764 243.191 74.432 234.449 69.92 224.297C65.69 213.863 63.575 200.891 63.575 185.381C63.575 128.699 103.478 100.358 183.284 100.358C192.308 100.358 202.319 101.063 213.317 102.473C224.597 103.601 235.454 105.152 245.888 107.126C256.604 109.1 265.628 111.215 272.96 113.471V190.457C257.45 183.971 243.773 179.6 231.929 177.344C220.085 175.088 209.651 173.96 200.627 173.96C193.577 173.96 186.386 174.665 179.054 176.075C171.722 177.203 168.056 180.023 168.056 184.535C168.056 188.201 171.299 191.162 177.785 193.418C184.271 195.392 194.564 198.353 208.664 202.301C231.224 208.505 248.144 215.978 259.424 224.72C270.704 233.18 278.177 243.332 281.843 255.176C285.791 266.738 287.765 280.133 287.765 295.361C287.765 321.305 277.613 342.173 257.309 357.965C237.005 373.475 206.69 381.23 166.364 381.23ZM442.824 381.23C417.162 381.23 394.038 377 373.452 368.54C352.866 360.08 336.51 347.531 324.384 330.893C312.54 314.255 306.618 293.81 306.618 269.558V104.588H408.984V256.445C408.984 281.825 420.264 294.515 442.824 294.515C465.384 294.515 476.664 281.825 476.664 256.445V104.588H579.03V269.558C579.03 293.81 572.967 314.255 560.841 330.893C548.997 347.531 532.782 360.08 512.196 368.54C491.61 377 468.486 381.23 442.824 381.23ZM606.568 377V104.588H768.154C796.072 104.588 817.645 111.215 832.873 124.469C848.383 137.723 856.138 156.758 856.138 181.574C856.138 195.11 853.741 206.672 848.947 216.26C844.435 225.848 838.372 233.462 830.758 239.102C841.474 244.178 849.934 250.805 856.138 258.983C862.342 266.879 865.444 278.723 865.444 294.515C865.444 320.177 856.984 340.34 840.064 355.004C823.426 369.668 800.02 377 769.846 377H606.568ZM702.589 209.069H740.659C754.195 209.069 760.963 203.006 760.963 190.88C760.963 179.6 754.195 173.96 740.659 173.96H702.589V209.069ZM702.589 307.628H740.659C754.195 307.628 760.963 301.565 760.963 289.439C760.963 278.159 754.195 272.519 740.659 272.519H702.589V307.628Z" fill="white"/>
</g>
<defs>
<clipPath id="clip0_5_10">
<rect width="926" height="456" fill="white"/>
</clipPath>
</defs>
</svg>
