<svg width="926" height="456" viewBox="0 0 926 456" fill="none" xmlns="http://www.w3.org/2000/svg">
<g clip-path="url(#clip0_5_10)">
<rect width="926" height="456" rx="115" fill="#EC459E"/>
<path d="M237.562 361L144.066 118.212H239.07L284.687 253.178L330.681 118.212H425.685L332.189 361H237.562ZM444.665 361V118.212H535.899V361H444.665ZM562.109 361V118.212H698.583C719.444 118.212 736.66 122.485 750.232 131.03C763.804 139.575 773.857 151.011 780.392 165.337C787.178 179.663 790.571 195.497 790.571 212.839C790.571 230.432 786.675 246.392 778.884 260.718C771.344 274.793 760.537 285.977 746.462 294.271C732.639 302.565 716.176 306.712 697.075 306.712H653.343V361H562.109ZM653.343 235.459H675.586C682.875 235.459 688.404 233.448 692.174 229.427C695.944 225.406 697.829 219.876 697.829 212.839C697.829 197.256 690.917 189.465 677.094 189.465H653.343V235.459Z" fill="white"/>
</g>
<defs>
<clipPath id="clip0_5_10">
<rect width="926" height="456" fill="white"/>
</clipPath>
</defs>
</svg>
