<svg width="1134" height="456" viewBox="0 0 1134 456" fill="none" xmlns="http://www.w3.org/2000/svg">
<g clip-path="url(#clip0_5_10)">
<path d="M0 115C0 51.4873 51.4873 0 115 0H822V456H115C51.4872 456 0 404.513 0 341V115Z" fill="#E91E63"/>
<path d="M786.304 502.895V313.553H588.484V165.188H786.304V-28.393H936.082V165.188H1133.9V313.553H936.082V502.895H786.304Z" fill="#9A1441"/>
<path d="M157.494 377L52.5901 104.588H159.186L210.369 256.022L261.975 104.588H368.571L263.667 377H157.494ZM389.867 377V104.588H492.233V377H389.867ZM521.641 377V104.588H674.767C698.173 104.588 717.49 109.382 732.718 118.97C747.946 128.558 759.226 141.389 766.558 157.463C774.172 173.537 777.979 191.303 777.979 210.761C777.979 230.501 773.608 248.408 764.866 264.482C756.406 280.274 744.28 292.823 728.488 302.129C712.978 311.435 694.507 316.088 673.075 316.088H624.007V377H521.641ZM624.007 236.141H648.964C657.142 236.141 663.346 233.885 667.576 229.373C671.806 224.861 673.921 218.657 673.921 210.761C673.921 193.277 666.166 184.535 650.656 184.535H624.007V236.141Z" fill="white"/>
</g>
<defs>
<clipPath id="clip0_5_10">
<rect width="1134" height="456" fill="white"/>
</clipPath>
</defs>
</svg>
